<?xml version="1.0" encoding="utf-8"?>
<!-- Generator: Adobe Illustrator 28.3.0, SVG Export Plug-In . SVG Version: 6.00 Build 0)  -->
<svg version="1.1" id="Layer_1" xmlns="http://www.w3.org/2000/svg" xmlns:xlink="http://www.w3.org/1999/xlink" x="0px" y="0px"
	 viewBox="0 0 595.3 841.9" style="enable-background:new 0 0 595.3 841.9;" xml:space="preserve">
<style type="text/css">
	.st0{fill:#020202;stroke:#000000;stroke-miterlimit:10;}
	.st1{fill:#020202;}
	.st2{font-family:'MongolianBaiti';}
	.st3{font-size:60px;}
</style>
<g>
	<g>
		<g>
			<g>
				<g>
					<path class="st0" d="M277,536.6c-21.7,0-43.5-0.4-65.2,0.1c-13,0.3-22.6-10.2-22.6-21.9c0-2.5-0.2-5.1,0-7.6
						c1.4-16.7-3.8-31.8-11.1-46.5c-7.9-15.7-19.3-28.7-31.9-41c-2.1-2-4-4.2-5.8-6.5c-13.2-16.8-23.6-35.1-31-55
						c-14.6-39.3-13.6-78.6,0.9-117.4c11-29.6,29-55.4,54.3-74.9c37.9-29.3,81.3-43.5,130-38.8c33.2,3.2,62.9,15.4,89.8,34.9
						c23.2,16.8,39.5,38.7,52.4,63.5c21.4,41.3,23.2,84.1,9.6,127.8c-7.6,24.2-20.4,45.9-37.3,65.2c-7.3,8.4-15.2,16.2-22.1,24.9
						c-9.9,12.5-17.1,26.6-20.5,42c-2,9.2-1.2,19-1.8,28.6c-0.2,2.9-0.3,5.9-1.1,8.6c-2.7,8.7-10.5,14.1-19.8,14.2
						C321.5,536.6,299.2,536.6,277,536.6L277,536.6z M260,519.2c0.9,0,1.6-0.7,1.6-1.6c0-1.1,0-2,0-2.9c0-17.2-0.2-34.4,0-51.7
						c0.1-12.9-3.5-23.5-15.4-31c-9.1-5.7-15.5-14.2-17.7-25c-0.8-3.9-1.2-7.8-1.8-11.7c-0.4-0.2-0.7-0.3-0.9-0.3
						c-0.6-0.1-1.2-0.2-1.8-0.3c-16.7-2.3-27.9-11.6-33.9-26.8c-0.8-2.1-2.1-2.2-3.9-2.4c-11.3-1-20.4-6.1-27-15
						c-4.5-6.1-6.5-13.4-5.8-21c0.2-2.9-0.7-4.7-2.7-6.6c-10.7-10.8-14.9-23.8-12.7-38.6c2-13.5,8.9-24.3,20-32.4
						c2.1-1.6,2.8-3,2.2-5.7c-1.7-7.9-1-15.6,2.3-23.1c5.8-12.8,15.2-21.7,28.9-25.7c3.3-1,5.4-2.5,7.1-5.6
						c15-26.8,53.2-29.4,71.6-4.7c2.7,3.5,4.5,7.7,6.7,11.6c0.1-0.3,0.3-0.4,0.4-0.7c5.9-16.1,17.3-25.8,34.8-27.5
						c18.7-1.8,33.8,4.6,43.2,21.2c1.7,3,3.8,4.6,7.1,5.6c19.2,5.7,32.3,22.7,32.2,41.6c0,3.7-1.9,7.9-0.6,11c1.4,3.2,5.6,5.3,8.3,8
						c18.8,19.1,17.8,50,0,65.9c-1.4,1.3-2.2,4-2.2,6.1c-0.3,11.4-2.8,21.6-13.4,28.5c-6,3.9-12.3,6.6-19.5,7.2
						c-2,0.2-3,0.8-3.7,2.7c-5.9,15.7-17.4,24.6-34.4,26.4c-2.5,0.3-3.1,1.1-3.5,3.5c-0.8,5.5-1.4,11.1-3.3,16.3
						c-3,7.9-9,13.8-16.3,18.3c-9,5.6-13.2,13.7-14.1,23.9c-0.2,2.2-0.3,4.4-0.3,6.5c-0.1,17.2-0.1,34.4-0.1,51.7c0,0.9,0,1.8,0,2.8
						c0,0.9,0.7,1.6,1.6,1.6c1,0,1.9,0,2.8,0c14.5,0,28.9-0.1,43.4-0.1c6.2,0,7.1-0.8,7.1-6.9c0-11.6,0-23.1,3.5-34.5
						c6.9-22.3,17.4-42.3,34.6-58.8c19.3-18.6,34.3-40.4,42.9-65.5c15.3-44.5,13.1-87.9-11.3-129.3c-19.8-33.5-47.4-57.8-84.8-71.2
						c-47.9-17.2-93.4-11.1-136.8,13.3c-27.1,15.2-47,38.2-60.6,65.2c-20.8,41.3-23,84.2-4.9,127.4c5,11.9,10.7,23.5,18.7,33.8
						c7.7,9.9,16.2,19.2,24.6,28.5c8.6,9.5,16,19.7,21.7,31.1c6.4,12.8,11.8,26,13.2,40.3c0.6,6.5,0.2,13.1,0.3,19.6
						c0.1,6.1,1.3,7.2,7.4,7.2c14-0.1,27.9-0.1,41.9-0.1C257.7,519.2,258.7,519.2,260,519.2z M390,270.5c-1-1.1-2.8-0.3-2.7,1.2
						c0.1,2.2,0.2,4.2-0.3,6c-0.8,3.3-2.3,6.7-4.4,9.3c-2.6,3.3-7.5,3.8-10.8,2.2c-3.4-1.7-5.5-6.2-4.7-10.3
						c0.3-1.4,1.1-2.7,1.9-3.9c2.1-3.2,1.7-9-0.9-12.7c-2.5-3.5-5.6-1.3-8.4-0.8c-1.5,0.3-3,1.1-4.4,1.8
						c-6.3,3.2-10.3,8.4-13.4,14.5c-2.1,4.1-6.3,5.7-10.7,4.4c-3.8-1.1-6.6-5.6-5.9-9.8c0.3-1.9,0.8-3.9,1.9-5.4
						c2.6-3.6,5.5-7.1,8.6-10.3c6.8-7,15.1-11.3,24.9-12.4c4.8-0.5,9.7-0.2,14.5-0.1c0.8,0,1.5-0.6,1.6-1.4
						c0.7-4.3-0.2-12.2-1.9-14.7c-5.9-8.8-13.3-15.5-24.7-16.5c-3.8-0.3-6.4-2.4-7.6-6c-0.5-1.4-1.1-2.7-1.6-4.1
						c-4.1-11.2-20.6-17.2-30.9-13.9c-11.7,3.7-18.5,13.2-18.5,27.2c-0.1,33-0.1,66-0.1,98.9c0,0,0,0,0,0c0,1.3,1.6,2,2.6,1.2
						c11.9-9.8,22.9-11.4,39-9.3c5.7,0.8,8.9,4.8,8.3,9.8c-0.5,4.5-4.7,7.3-10.5,6.9c-3-0.2-5.9-0.7-8.9-0.7
						c-18.8,0.3-33.7,20.5-27.5,37.7c5.7,15.9,24.1,25.7,43.1,15.4c4.4-2.4,8-5.8,10-10.6c0.4-0.8,0-1.8-0.9-2.1
						c-0.8-0.4-1.6-0.7-2.2-1.1c-3-2.1-6.4-4.1-6.2-8.3c0.2-7.1,7.6-10.4,14.2-6.1c4.1,2.7,8.3,4,13.2,3.5
						c7.5-0.6,14.8-6.3,16.6-12.2c0.3-1-0.5-2.1-1.6-2.1c-6.7,0.2-13.4,0.4-20.1,0.5c-5.4,0-9.3-4.2-9.4-9.7c-0.1-4.8,3.2-7.8,9-7.9
						c2.1-0.1,4.2,0.4,6.3,0.3c4.7-0.3,9.8,0.1,14.1-1.5C400,310.6,404.5,285.6,390,270.5z M173.4,335.9c-1.2,0-2,1.1-1.5,2.2
						c4.5,11,18.7,16.9,28.8,8.7c0.8-0.6,1.7-1.1,2.6-1.4c3.7-1.5,8-0.3,10.3,2.8c2.3,3.1,2.2,6.8-0.8,9.8c-1.6,1.6-3.7,2.9-5.7,4.2
						c-0.6,0.4-0.9,1.3-0.6,2c5.4,12.4,23.7,18.9,36.9,12.4c12.3-6.1,19-19.7,15.6-32.2c-3.7-13.5-16.8-23.3-30.4-22.6
						c-2.6,0.1-5.2,0.6-7.7,0.7c-4.6,0.2-8.2-2.9-8.8-7.2c-0.6-4.3,2-8.6,6.4-9.3c11.9-1.8,23.7-1.9,34.4,4.8c2.1,1.3,4,2.8,6.2,4.3
						c1.1,0.8,2.5,0,2.6-1.3c0,0,0-0.1,0-0.1c0-22.8,0-45.6,0.1-68.4c0-10.9,0.2-21.8-0.1-32.7c-0.6-19.9-18.6-28.7-32.7-24.6
						c-9.4,2.7-14.9,9.2-18,17.9c-1.2,3.3-3.4,5.5-6.8,5.9c-11.1,1.4-19.3,6.9-25,16.2c-3,4.9-3.1,10.1-2.3,15.6
						c0.1,0.9,0.9,1.5,1.8,1.4c0.8-0.1,1.5-0.2,2.2-0.3c19-2.4,36.4,6.5,45.3,23.2c0.8,1.6,1.5,3.4,1.8,5.1c0.6,4-1.6,7.6-5.3,9.1
						c-3.4,1.5-7.4,0.6-10-2.5c-1.2-1.4-2.1-3-3-4.6c-4.3-7.2-10.5-12.1-18.9-14.1c-2.3-0.6-4.4-0.2-5.4,2c-2,4.3-3.3,8.6,0.1,13
						c3.1,4,2.1,8.9-2.1,12.2c-3.6,2.9-8.6,2.7-12.1-0.7c-3-2.9-4.6-6.6-4.8-10.7c-0.1-2.8,0-5.5,0-8.3c-0.4,0.3-1.2,0.6-1.8,1.1
						c-8.1,8.2-11.3,18-8.3,29c3,11,10.3,18.6,22.2,20.4c4.9,0.8,10,0,15.1-0.1c3.7-0.1,6.5,1.3,8,4.7c2.8,6.1-1.4,12.8-8.4,12.9
						C186.5,336.4,180,336.1,173.4,335.9z M276.6,443c0.3-0.2,0.4-0.2,0.4-0.3c0.4-1.1,0.8-2.3,1.2-3.4c3.1-8.3,8.3-15,16.2-19.1
						c8.7-4.4,15.3-15.4,14.4-25.2c-0.1-0.6-0.5-1.1-1.1-1.3c-7.4-2.4-14-6-19.4-11.7c-4.6-4.9-8.1-10.4-10.6-16.7
						c-0.5-1.3-2.4-1.4-3,0c-5.4,13.7-14.7,23.2-29.1,28.1c-0.7,0.2-1.4,1.3-1.5,2c-0.9,8.7,5.6,20.6,13.5,24.3
						c8.5,4.1,14.2,10.6,17.6,19.2C275.7,440.3,276.1,441.6,276.6,443z"/>
					<path class="st1" d="M313.4,212.8c0.2-0.1,0.4-0.1,0.6-0.1c9.1,0.9,17.2,3.8,24.3,9.1c5.3,3.9,5.8,8.7,1.8,12.3
						c-3.1,2.8-6.8,2.6-10.4,1.1c-1.8-0.7-3.4-1.9-5.1-3c-3.8-2.4-7.9-3.8-12.6-3.5c-1.7,0.1-3.4-0.2-5.1-0.3
						c-3.2-0.2-5.3-1.7-5.8-4.9c-0.6-3.5,0.5-6.5,3.7-8C307.4,214.1,310.5,213.6,313.4,212.8z"/>
					<path class="st1" d="M251.5,222c-0.1,4.3-2.2,6.7-7.3,6.5c-7.4-0.2-13.7,2.1-19.8,5.8c-1.8,1.1-4.2,1.6-6.3,1.6
						c-3.4,0-5.6-2.1-7-5.1c-1.3-2.9-0.3-5.4,1.8-7.3c8.7-7.9,19.1-11.4,30.9-10C248.6,214.2,251.5,217.8,251.5,222z"/>
				</g>
			</g>
		</g>
	</g>
</g>
<path class="st0" d="M277.4,612.5c-20,0-40,0-60,0c-4.1,0-7.4-1.5-9.7-4.7c-0.9-1.3-1.2-3.1-1.3-4.7c-0.1-7.1,0-14.1,0-21.2
	c0-15,0-30.1-0.1-45.1c0-6.2,3.8-9.4,9.4-9.7c1.4-0.1,1.8-0.5,1.8-1.9c-0.1-9.9-0.1-19.9,0-29.8c0-4.5,1.4-8.7,3.2-12.9
	c1.4-3.4,3.5-6.4,5.8-9.2c1.9-2.4,4.1-4.6,6.4-6.6c5.5-4.9,11.9-8.6,18.8-11.1c10.7-4,21.8-5.5,33.2-4.3c9.6,1,18.8,3.7,27.2,8.4
	c6.3,3.5,12,7.8,16.4,13.5c2.6,3.4,4.9,6.9,6.5,10.9c1.8,4.3,2.5,8.7,2.4,13.4c-0.1,9.2,0,18.5,0,27.8c0,1.3,0.3,1.7,1.7,1.8
	c3,0.3,5.8,1.1,7.7,3.6c1,1.3,1.6,2.6,1.6,4.3c0,7.5,0,15,0,22.5c0,15.1-0.2,30.1,0.1,45.2c0.1,5.4-4,8.7-8.2,9.5
	c-1.1,0.2-2.1,0.3-3.2,0.3C317.3,612.5,297.4,612.5,277.4,612.5L277.4,612.5L277.4,612.5z M229.7,605.2c0-3,0-5.7,0-8.5
	c0-1.2,0.2-2.3,1.4-3c2-1.2,4-1.2,6-0.2c1.8,0.9,2.2,2.5,2.1,4.4c-0.1,2.4,0,4.8,0,7.2c25.7,0,51.2,0,76.8,0c0-1.3,0-2.5,0-3.6
	c0.1-1.8,0.3-3.6,0.4-5.4c0.2-2.7,3-3.3,5.1-3.2c2.2,0.1,4.5,2,4.3,4.4c-0.2,2.6,0,5.2,0,7.9c3.3,0,6.4,0,9.5,0
	c2.1,0,3.8-1.1,3.7-3.7c-0.1-5.1,0-10.3-0.1-15.4c0-0.4-0.1-0.8-0.1-1.3c-0.7,0-1.2,0-1.8,0c-5.3,0-10.7,0-16,0
	c-1.1,0-2.2-0.3-3.2-0.8c-1.6-0.7-2.2-2.9-1.3-4.4c1-1.7,2.5-2,4.3-2c5.6,0,11.1,0,16.7,0c0.5,0,1.4-0.3,1.4-0.5
	c0.1-2.5,0.1-5,0.1-7.5c-0.8,0-1.4,0-1.9,0c-5.3,0-10.6,0-15.8,0c-1.2,0-2.5-0.3-3.5-0.9c-1.5-0.9-2.5-2.7-1.2-4.4
	c1.1-1.6,2.6-1.8,4.2-1.8c5.5-0.1,11,0,16.4-0.1c0.5,0,1.1,0,1.6,0c0-3.6,0-7,0-10.5c-0.7,0-1.2,0-1.7,0c-5.3,0-10.7,0-16-0.1
	c-1.1,0-2.3-0.3-3.4-0.8c-1.6-0.8-2-2.7-1.2-4.2c0.9-1.7,2.4-2.1,4.2-2.1c5.5,0,11,0,16.6,0c0.5,0,1,0,1.6-0.1c0-2.7,0-5.3,0-7.8
	c0-1.5-1.2-2-2.4-2.3c-0.6-0.1-1.3-0.1-1.9-0.1c-37.9,0-75.8,0-113.7,0c-0.6,0-1.4-0.2-1.9,0.1c-0.9,0.4-2.4,1.1-2.4,1.7
	c-0.3,2.8-0.1,5.5-0.1,8.4c0.6,0,1.2,0,1.7,0c5.2,0,10.5,0,15.7,0.1c1.1,0,2.3,0.2,3.3,0.6c2,1,3.1,3,1.1,5
	c-1.2,1.3-2.7,1.5-4.3,1.5c-5.3,0-10.7,0-16,0c-0.5,0-1,0-1.6,0c0,3.6,0,7,0,10.5c6,0,11.9,0,17.7,0c1,0,2.1,0.2,3,0.6
	c1.9,0.9,2.8,3,1.2,4.8c-1.2,1.4-2.6,1.8-4.3,1.8c-5.4,0-10.8,0-16.1,0c-1.3,0-1.7,0.4-1.6,1.7c0.1,1.6,0,3.3-0.1,4.9
	c-0.1,1.2,0.4,1.6,1.6,1.6c5.5-0.1,10.9,0,16.4,0c0.9,0,2,0.2,2.8,0.6c2.1,1.1,3.2,3.5,1.1,5.2c-1,0.8-2.5,1.4-3.8,1.4
	c-5.4,0.2-10.9,0.1-16.3,0.1c-0.5,0-1.1,0-1.6,0c-0.1,0.4-0.1,0.7-0.1,0.9c0,5.5-0.1,11-0.1,16.4c0,1.5,1.3,2.9,3,3
	C222.6,605.3,226.1,605.2,229.7,605.2z M247,513.2c20.3,0,40.7,0,61.2,0c0-0.6,0-1,0-1.5c0-4.8-0.2-9.7,0.1-14.5
	c0.2-4.8-1.6-8.8-4.5-12.4c-3.5-4.2-7.9-7.3-13.1-9.1c-13.6-4.5-26.1-2.7-37,6.8c-3.5,3-6.2,6.8-6.5,11.3
	C246.7,500.2,247,506.6,247,513.2z M227.3,527.1c2.8,0,5.5-0.1,8.1,0c1.4,0.1,1.9-0.4,1.9-1.8c-0.1-9.1,0.1-18.2-0.1-27.3
	c-0.1-5.3,1-10.2,4.1-14.7c2.7-3.9,6-7.1,9.9-9.8c6.2-4.2,13.2-6.4,20.6-7.1c14.5-1.4,27.5,1.9,38.1,12.1c3.2,3.1,5.6,6.8,6.9,11.1
	c0.9,2.7,1.2,5.5,1.2,8.4c-0.1,9.1,0,18.1,0.1,27.2c0,0.6,0,1.2,0,1.8c3.4,0,6.6,0,9.9,0c0-0.6,0-1,0-1.5c0-9.2,0-18.3,0-27.5
	c0-1.8-0.3-3.6-0.5-5.4c-0.5-4-2.1-7.6-4-11.1c-1.8-3.4-4.4-6.2-7.1-8.8c-3.7-3.5-8-6.3-12.6-8.5c-10.9-5.2-22.4-7-34.3-5.3
	c-12.3,1.8-23.4,6.3-32,15.4c-2.5,2.6-5,5.5-6.7,8.7c-2.2,4.1-3.5,8.7-3.4,13.5c0.2,9.6,0.1,19.2,0,28.8
	C227.3,525.8,227.3,526.4,227.3,527.1z M246.9,526.9c20.5,0,40.9,0,61.2,0c0-2.1,0-4.1,0-6.2c-20.4,0-40.8,0-61.2,0
	C246.9,522.8,246.9,524.8,246.9,526.9z"/>
<path class="st0" d="M268.8,582.6c0-2.8,0-5.6,0-8.4c0-0.8-0.2-1.1-1-1.5c-3.6-1.7-6.3-4.5-7.7-8.2c-1.2-3.1-0.5-6.3,1.4-9.1
	c5.9-9,21.2-10,29.4-3.4c2.4,1.9,4.1,4.4,4.8,7.6c0.7,4-0.9,6.9-3.4,9.5c-1.3,1.4-3,2.3-4.7,3.3c-0.9,0.5-1.2,1-1.1,1.9
	c0,5.2,0,10.4,0,15.5c0,3.7-2,5.7-5.8,5.7c-2.5,0-5,0.1-7.5-0.2c-3-0.4-4.4-2.2-4.4-5.1C268.8,587.7,268.8,585.1,268.8,582.6
	L268.8,582.6z"/>
<text transform="matrix(1 0 0 1 64.9142 670.4641)" class="st2 st3">Secure By Choice</text>
<path d="M-414.9,199.3"/>
<path d="M-388.9,158.8"/>
</svg>
